<svg xmlns="http://www.w3.org/2000/svg" xmlns:xlink="http://www.w3.org/1999/xlink" viewBox="0 0 1080 1080" width="1080" height="1080" preserveAspectRatio="xMidYMid meet" style="width: 100%; height: 100%; transform: translate3d(0px, 0px, 0px); content-visibility: visible;"><defs><clipPath id="__lottie_element_2630"><rect width="1080" height="1080" x="0" y="0"></rect></clipPath><g id="__lottie_element_2633"><g clip-path="url(#__lottie_element_2634)" transform="matrix(0.9965789318084717,0.08264655619859695,-0.08264655619859695,0.9965789318084717,52.953948974609375,-41.769775390625)" opacity="1" style="display: block;"><g transform="matrix(0.9092683792114258,-0.03648301959037781,0.03648301959037781,0.9092683792114258,550.5264282226562,549.3082275390625)" opacity="1" style="display: block;"><path fill="rgb(88,204,2)" fill-opacity="1" d=" M-3.2090001106262207,-238.2169952392578 C19.886999130249023,-237.27200317382812 24.323999404907227,-242.92999267578125 47.87799835205078,-247.0189971923828 C63.57899856567383,-249.95599365234375 83.53800201416016,-252.10299682617188 103.27300262451172,-246.4969940185547 C120.95700073242188,-241.4499969482422 140.65199279785156,-228.5260009765625 152.5709991455078,-213.86000061035156 C160.42999267578125,-204.18899536132812 166.92799377441406,-192.28700256347656 170.7530059814453,-181.60899353027344 C175.8419952392578,-167.40199279785156 175.49099731445312,-153.09300231933594 174.56199645996094,-144.2030029296875 C174.56199645996094,-144.2030029296875 168.21200561523438,-22.788999557495117 168.21200561523438,-22.788999557495117 C168.21200561523438,124.15899658203125 44.11600112915039,164.04400634765625 -12.883000373840332,165.51499938964844 C-69.88200378417969,164.04400634765625 -182.61000061035156,121.35099792480469 -182.61000061035156,-25.597000122070312 C-182.61000061035156,-25.597000122070312 -175.86900329589844,-175.3179931640625 -175.86900329589844,-175.3179931640625 C-171.40199279785156,-226.1840057373047 -72.3740005493164,-241.9709930419922 -3.2090001106262207,-238.2169952392578z M-23.3700008392334,-248.3820037841797 C-7.202000141143799,-241.43299865722656 7.684999942779541,-235.30799865722656 30.066999435424805,-233.37600708007812 C87.16899871826172,-228.44700622558594 180.10499572753906,-189.8979949951172 176.2969970703125,-145.78599548339844 C176.2969970703125,-145.78599548339844 168.64599609375,-23.184999465942383 168.64599609375,-23.184999465942383 C168.64599609375,123.76300048828125 44.117000579833984,164.04400634765625 -12.883000373840332,165.51499938964844 C-69.88200378417969,164.04400634765625 -190.74899291992188,120.31700134277344 -182.62899780273438,-25.183000564575195 C-182.62899780273438,-25.183000564575195 -175.43600463867188,-175.71299743652344 -175.43600463867188,-175.71299743652344 C-174.76699829101562,-186.5189971923828 -167.9669952392578,-203.98199462890625 -157.32000732421875,-219.4759979248047 C-150.27499389648438,-229.72799682617188 -138.02499389648438,-240.5679931640625 -126.40799713134766,-247.72000122070312 C-113.76899719238281,-255.5019989013672 -96.99800109863281,-263.0820007324219 -78.74600219726562,-262.1239929199219 C-56.4640007019043,-261.239013671875 -38.62699890136719,-254.927001953125 -23.3700008392334,-248.3820037841797z"></path><path fill="rgb(88,204,2)" fill-opacity="1" d=" M-23.3700008392334,-248.3820037841797 C-7.202000141143799,-241.43299865722656 7.684999942779541,-235.30799865722656 30.066999435424805,-233.37600708007812 C87.16899871826172,-228.44700622558594 180.10499572753906,-189.8979949951172 176.2969970703125,-145.78599548339844 C176.2969970703125,-145.78599548339844 168.64599609375,-23.184999465942383 168.64599609375,-23.184999465942383 C168.64599609375,123.76300048828125 44.117000579833984,164.04400634765625 -12.883000373840332,165.51499938964844 C-69.88200378417969,164.04400634765625 -190.74899291992188,120.31700134277344 -182.62899780273438,-25.183000564575195 C-182.62899780273438,-25.183000564575195 -175.43600463867188,-175.71299743652344 -175.43600463867188,-175.71299743652344 C-174.76699829101562,-186.5189971923828 -167.9669952392578,-203.98199462890625 -157.32000732421875,-219.4759979248047 C-150.27499389648438,-229.72799682617188 -138.02499389648438,-240.5679931640625 -126.40799713134766,-247.72000122070312 C-113.76899719238281,-255.5019989013672 -96.99800109863281,-263.0820007324219 -78.74600219726562,-262.1239929199219 C-56.4640007019043,-261.239013671875 -38.62699890136719,-254.927001953125 -23.3700008392334,-248.3820037841797z"></path></g></g></g><clipPath id="__lottie_element_2634"><path d="M0,0 L1080,0 L1080,1080 L0,1080z"></path></clipPath><mask id="__lottie_element_2633_1" mask-type="alpha"><use xlink:href="#__lottie_element_2633"></use></mask><g id="__lottie_element_2644"><g clip-path="url(#__lottie_element_2648)" transform="matrix(1.0464067459106445,0.08677878975868225,-0.08677878975868225,1.0464067459106445,24.170385360717773,-84.24568176269531)" opacity="1" style="display: block;"><g transform="matrix(0.9100000262260437,0,0,0.9100000262260437,546,556)" opacity="1" style="display: block;"><g opacity="1" transform="matrix(1,0,0,1,0,0)"><path fill="rgb(75,75,75)" fill-opacity="1" d=" M-69.60399627685547,1.0750000476837158 C-69.63300323486328,-25.339000701904297 -77.36599731445312,-32.86899948120117 -91.53299713134766,-34.64400100708008 C-112.11199951171875,-36.06700134277344 -108.10900115966797,-15.651000022888184 -107.37899780273438,-1.9730000495910645 C-106.9219970703125,6.590000152587891 -105.85700225830078,9.89900016784668 -103.45500183105469,14.909000396728516 C-98.95700073242188,24.288999557495117 -91.73600006103516,29.083999633789062 -83.94599914550781,28.347999572753906 C-78.0999984741211,27.933000564575195 -74.69200134277344,25.320999145507812 -71.89700317382812,19.511999130249023 C-69.63600158691406,14.812000274658203 -69.59400177001953,10.404000282287598 -69.60399627685547,1.0750000476837158z"></path></g><g opacity="1" transform="matrix(1,0,0,1,0,0)"><path fill="rgb(75,75,75)" fill-opacity="1" d=" M9.47700023651123,22.179000854492188 C7.132999897003174,-5.921999931335449 14.272000312805176,-12.395000457763672 29.236000061035156,-14.746999740600586 C50.65700149536133,-18.4950008392334 52.50600051879883,0.4519999921321869 53.433998107910156,11.798999786376953 C54.15299987792969,20.594999313354492 53.553001403808594,28.46500015258789 51.57899856567383,33.84000015258789 C47.56999969482422,44.75699996948242 40.49800109863281,47.183998107910156 32.72800064086914,48.54600143432617 C26.895999908447266,49.47800064086914 19.37299919128418,46.527000427246094 15.989999771118164,42.104000091552734 C12.914999961853027,38.08399963378906 10.241999626159668,31.350000381469727 9.47700023651123,22.179000854492188z"></path></g></g></g></g><clipPath id="__lottie_element_2648"><path d="M0,0 L1080,0 L1080,1080 L0,1080z"></path></clipPath><mask id="__lottie_element_2644_1" mask-type="alpha"><use xlink:href="#__lottie_element_2644"></use></mask></defs><g clip-path="url(#__lottie_element_2630)"><g transform="matrix(0.9100000262260437,0,0,0.9100000262260437,552,550)" opacity="0.3" style="display: block;"><path fill="rgb(175,175,175)" fill-opacity="1" d=" M-10.402999877929688,-78.9219970703125 C101.64700317382812,-78.9219970703125 192.48199462890625,-8.196999549865723 192.48199462890625,79.0469970703125 C192.48199462890625,166.29100036621094 101.64700317382812,237.01699829101562 -10.402999877929688,237.01699829101562 C-122.4530029296875,237.01699829101562 -213.28799438476562,166.29100036621094 -213.28799438476562,79.0469970703125 C-213.28799438476562,-8.196999549865723 -122.4530029296875,-78.9219970703125 -10.402999877929688,-78.9219970703125z"></path></g><g transform="matrix(1,0,0,1,0,0)" opacity="1" style="display: block;"><g opacity="1" transform="matrix(1,0,0,1,677.6719970703125,537.677001953125)"><path stroke-linecap="round" stroke-linejoin="miter" fill-opacity="0" stroke-miterlimit="4" stroke="rgb(244,144,0)" stroke-opacity="1" stroke-width="54" d=" M-66.5,143.5 C-66.5,143.5 -80.78199768066406,134.05499267578125 -80.78199768066406,134.05499267578125"></path></g><g opacity="1" transform="matrix(1,0,0,1,540.8619995117188,538.677001953125)"><path stroke-linecap="round" stroke-linejoin="miter" fill-opacity="0" stroke-miterlimit="4" stroke="rgb(244,144,0)" stroke-opacity="1" stroke-width="54" d=" M-68.5,142.5 C-68.5,142.5 -45,107.5 -45,107.5"></path></g></g><g transform="matrix(0.9037097096443176,0.10681244730949402,-0.10681244730949402,0.9037097096443176,556.3746337890625,556.93212890625)" opacity="1" style="display: block;"><path fill="rgb(88,204,2)" fill-opacity="1" d=" M-158.28599548339844,-119.43199920654297 C-173.91400146484375,-84.0989990234375 -241.84100341796875,33.880001068115234 -241.84100341796875,47.854000091552734 C-241.84100341796875,58.17900085449219 -235.78399658203125,77.86599731445312 -200.26600646972656,77.86599731445312 C-188.31300354003906,77.86599731445312 -178.50799560546875,73.93499755859375 -170.8159942626953,68.55500030517578 C-160.22300720214844,61.14500045776367 -156.88900756835938,53.5369987487793 -150.97999572753906,44.54999923706055 C-145.0709991455078,35.5629997253418 -143.21499633789062,30.23900032043457 -139.84300231933594,23.36400032043457 C-136.4709930419922,16.48900032043457 -138.56199645996094,-99.25399780273438 -158.28599548339844,-119.43199920654297z"></path><path stroke-linecap="butt" stroke-linejoin="miter" fill-opacity="0" stroke-miterlimit="4" stroke="rgb(255,0,0)" stroke-opacity="1" stroke-width="0" d=" M-158.28599548339844,-119.43199920654297 C-173.91400146484375,-84.0989990234375 -241.84100341796875,33.880001068115234 -241.84100341796875,47.854000091552734 C-241.84100341796875,58.17900085449219 -235.78399658203125,77.86599731445312 -200.26600646972656,77.86599731445312 C-188.31300354003906,77.86599731445312 -178.50799560546875,73.93499755859375 -170.8159942626953,68.55500030517578 C-160.22300720214844,61.14500045776367 -156.88900756835938,53.5369987487793 -150.97999572753906,44.54999923706055 C-145.0709991455078,35.5629997253418 -143.21499633789062,30.23900032043457 -139.84300231933594,23.36400032043457 C-136.4709930419922,16.48900032043457 -138.56199645996094,-99.25399780273438 -158.28599548339844,-119.43199920654297z"></path></g><g transform="matrix(0.908959150314331,0.04351266101002693,-0.04351266101002693,0.908959150314331,558.30078125,555.8533935546875)" opacity="1" style="display: block;"><path fill="rgb(88,204,2)" fill-opacity="1" d=" M125.21700286865234,44.54999923706055 C127.13099670410156,49.180999755859375 131.0780029296875,55.74399948120117 137.09100341796875,61.821998596191406 C145.49600219726562,70.31800079345703 157.93800354003906,77.86599731445312 174.5019989013672,77.86599731445312 C210.02200317382812,77.86599731445312 216.07699584960938,58.17900085449219 216.07699584960938,47.854000091552734 C216.07699584960938,33.880001068115234 177.3470001220703,-37.59199905395508 157.98199462890625,-75.49700164794922 C157.98199462890625,-75.49700164794922 124.1760025024414,-87.91200256347656 125.2750015258789,15.385000228881836"></path></g><g mask="url(#__lottie_element_2633_1)" style="display: block;"><g transform="matrix(0.906886875629425,0.07520836591720581,-0.07520836591720581,0.906886875629425,557.6099853515625,551.9688720703125)" opacity="1"><g opacity="1" transform="matrix(1,0,0,1,0,0)"><path fill="rgb(88,204,2)" fill-opacity="1" d=" M392.85699462890625,-448.35150146484375 C392.85699462890625,-448.35150146484375 392.85699462890625,448.35150146484375 392.85699462890625,448.35150146484375 C392.85699462890625,448.35150146484375 -392.85699462890625,448.35150146484375 -392.85699462890625,448.35150146484375 C-392.85699462890625,448.35150146484375 -392.85699462890625,-448.35150146484375 -392.85699462890625,-448.35150146484375 C-392.85699462890625,-448.35150146484375 392.85699462890625,-448.35150146484375 392.85699462890625,-448.35150146484375z"></path></g><g opacity="1" transform="matrix(1,0,0,1,0,0)"><path fill="rgb(137,226,25)" fill-opacity="1" d=" M44.44599914550781,-123.78199768066406 C29.44700050354004,-123.76300048828125 -2.368000030517578,-60.85300064086914 -44.36600112915039,-63.04199981689453 C-88.0510025024414,-64.64099884033203 -96.20899963378906,-131.9429931640625 -113.89600372314453,-139.87600708007812 C-124.52999877929688,-145.79299926757812 -126.70999908447266,-121.0979995727539 -127.06400299072266,-110.47799682617188 C-130.72500610351562,-116.09400177001953 -138.81500244140625,-126.71199798583984 -143.66799926757812,-128.3489990234375 C-148.0959930419922,-130.031005859375 -150.96400451660156,-119.08100128173828 -151.41700744628906,-112.66400146484375 C-151.60000610351562,-110.06999969482422 -151.61199951171875,-108.18900299072266 -150.69700622558594,-101.36799621582031 C-158.968994140625,-98.9729995727539 -175.3350067138672,-86.30899810791016 -176.68499755859375,-63.683998107910156 C-177.80799865722656,-44.862998962402344 -174.69200134277344,-16.45599937438965 -172.01100158691406,-2.8459999561309814 C-166.59500122070312,24.64900016784668 -152.10899353027344,43.66600036621094 -124.29299926757812,51.082000732421875 C-101.79399871826172,57.39400100708008 -73.43099975585938,47.775001525878906 -67.71299743652344,38.15399932861328 C-67.71299743652344,38.15399932861328 -29.95599937438965,42.29999923706055 -29.95599937438965,42.29999923706055 C-25.64299964904785,51.1609992980957 -5.793000221252441,78.58100128173828 30.91699981689453,80.77999877929688 C67.68599700927734,83.69200134277344 97.36000061035156,62.1510009765625 104.18000030517578,31.875 C107.88800048828125,15.414999961853027 106.86699676513672,-8.543999671936035 105.53099822998047,-31.566999435424805 C103.95600128173828,-58.707000732421875 92.33100128173828,-74.68099975585938 85.66799926757812,-80.66999816894531 C86.5459976196289,-81.66600036621094 85.35399627685547,-80.72599792480469 86.4010009765625,-89.24600219726562 C87.70999908447266,-99.89600372314453 82.7979965209961,-110.94599914550781 77.91200256347656,-111.05599975585938 C72.01200103759766,-110.93800354003906 65.1989974975586,-103.46499633789062 59.3380012512207,-97.4229965209961 C56.124000549316406,-109.34300231933594 55.92900085449219,-123.2760009765625 44.44599914550781,-123.78199768066406z"></path></g></g></g><g transform="matrix(0.8897742629051208,0.19079262018203735,-0.19079262018203735,0.8897742629051208,549.2521362304688,540.4676513671875)" opacity="1" style="display: block;"><path fill="rgb(137,226,25)" fill-opacity="1" d=" M-28.465999603271484,129.71099853515625 C-28.465999603271484,125.322998046875 -59.42499923706055,119.4520034790039 -71.4229965209961,119.4520034790039 C-82.59300231933594,119.4520034790039 -67.56099700927734,138.55099487304688 -49.702999114990234,138.55099487304688 C-32.74100112915039,138.55099487304688 -28.465999603271484,132.61399841308594 -28.465999603271484,129.71099853515625z M4.998000144958496,129.71099853515625 C4.998000144958496,125.322998046875 35.957000732421875,119.4520034790039 47.95500183105469,119.4520034790039 C59.125,119.4520034790039 44.09400177001953,138.55099487304688 26.235000610351562,138.55099487304688 C9.27299976348877,138.55099487304688 4.998000144958496,132.61399841308594 4.998000144958496,129.71099853515625z M-26.260000228881836,147.26100158691406 C-31.89900016784668,146.281005859375 -34.53499984741211,147.79100036621094 -34.53499984741211,150.99000549316406 C-34.53499984741211,156.31700134277344 -20.951000213623047,159.0989990234375 -11.366999626159668,159.0989990234375 C-1.7829999923706055,159.0989990234375 10.972999572753906,154.718994140625 10.972999572753906,150.99000549316406 C10.972999572753906,148.0070037841797 8.369999885559082,147.031005859375 6.629000186920166,147.26100158691406 C-2.609999895095825,148.4810028076172 -21.226999282836914,148.13600158691406 -26.260000228881836,147.26100158691406z"></path></g><g style="display: none;" transform="matrix(0.9100000262260437,0,0,0.9100000262260437,552,550)" opacity="1"><g opacity="1" transform="matrix(1,0,0,1,0,0)"><path fill="rgb(88,204,2)" fill-opacity="1" d=" M-120.18199920654297,-7.328999996185303 C-144.07899475097656,-1.628000020980835 -199.56399536132812,-0.414000004529953 -232.64999389648438,-17.08099937438965 C-248.90699768066406,-25.270999908447266 -271.5010070800781,-45.25600051879883 -279.90399169921875,-59.21699905395508 C-292.9840087890625,-83.04499816894531 -288.72100830078125,-96.81600189208984 -267.3290100097656,-101.625 C-242.38400268554688,-107.23200225830078 -176.89100646972656,-121.0770034790039 -110.5739974975586,-121.99600219726562"></path></g></g><g style="display: none;" transform="matrix(0.9100000262260437,0,0,0.9100000262260437,545.1749877929688,639.1748046875)" opacity="1"><g opacity="1" transform="matrix(1,0,0,1,0,0)"><path stroke-linecap="round" stroke-linejoin="round" fill-opacity="0" stroke="rgb(78,184,0)" stroke-opacity="1" stroke-width="8" d=" M-137.1929931640625,-95.86900329589844 C-137.1929931640625,-95.86900329589844 -122.73400115966797,-113.98500061035156 -86.96900177001953,-107.4280014038086 C-50.025001525878906,-100.65499877929688 -43.4630012512207,-83.7040023803711 -43.4630012512207,-83.7040023803711"></path></g><g opacity="1" transform="matrix(1,0,0,1,0,0)"><path stroke-linecap="round" stroke-linejoin="round" fill-opacity="0" stroke="rgb(78,184,0)" stroke-opacity="1" stroke-width="8" d=" M129.19000244140625,-97.55500030517578 C129.19000244140625,-97.55500030517578 114.70899963378906,-114.04399871826172 77.5989990234375,-107.33999633789062 C39.8390007019043,-100.51799774169922 33.92100143432617,-82.08499908447266 33.92100143432617,-82.08499908447266"></path></g></g><g style="display: none;" transform="matrix(0.9100000262260437,0,0,0.9100000262260437,552,550)" opacity="1"><path fill="rgb(88,204,2)" fill-opacity="1" d=" M-159.12799072265625,-114.08356475830078 C-159.12799072265625,-114.08356475830078 -173.90443420410156,-108.77256774902344 -182.5778350830078,-107.0860366821289 C-191.25123596191406,-105.39950561523438 -198.66661071777344,-104.01065063476562 -206.64154052734375,-101.48561096191406 C-220.26126098632812,-97.34007263183594 -223.84361267089844,-91.3032455444336 -220.82920837402344,-70.18079376220703 C-217.56790161132812,-47.32432174682617 -206.02728271484375,-27.413469314575195 -196.15255737304688,-13.405424118041992 C-185.4882049560547,1.721909999847412 -164.93824768066406,11.890254020690918 -143.11231994628906,15.65532398223877"></path><path stroke-linecap="round" stroke-linejoin="round" fill-opacity="0" stroke="rgb(61,190,1)" stroke-opacity="1" stroke-width="8" d=" M-159.12799072265625,-114.08356475830078 C-159.12799072265625,-114.08356475830078 -173.90443420410156,-108.77256774902344 -182.5778350830078,-107.0860366821289 C-191.25123596191406,-105.39950561523438 -198.66661071777344,-104.01065063476562 -206.64154052734375,-101.48561096191406 C-220.26126098632812,-97.34007263183594 -223.84361267089844,-91.3032455444336 -220.82920837402344,-70.18079376220703 C-217.56790161132812,-47.32432174682617 -206.02728271484375,-27.413469314575195 -196.15255737304688,-13.405424118041992 C-185.4882049560547,1.721909999847412 -164.93824768066406,11.890254020690918 -143.11231994628906,15.65532398223877"></path></g><g transform="matrix(0.9522311687469482,0.07896878570318222,-0.07896878570318222,0.9522311687469482,546.6554565429688,545.575927734375)" opacity="1" style="display: block;"><g opacity="1" transform="matrix(1,0,0,1,0,0)"><path fill="rgb(255,255,255)" fill-opacity="1" d=" M-66.26699829101562,-27.163000106811523 C-68.95800018310547,-59.45899963378906 -88.00599670410156,-78.5 -110.88500213623047,-76.77799987792969 C-132.38400268554688,-75.16000366210938 -141.53900146484375,-58.46900177001953 -140.13600158691406,-37.12200164794922 C-139.1999969482422,-22.882999420166016 -137.7449951171875,-9.817999839782715 -136.36599731445312,4.10099983215332 C-135.45899963378906,7.770999908447266 -94.24099731445312,36.332000732421875 -83.98699951171875,41.05500030517578 C-74.18199920654297,40.310001373291016 -61.18899917602539,29.948999404907227 -62.15599822998047,15.133999824523926 C-63.387001037597656,2.562999963760376 -64.46099853515625,-9.687000274658203 -66.26699829101562,-27.163000106811523z"></path></g><g opacity="1" transform="matrix(1,0,0,1,0,0)"><path fill="rgb(255,255,255)" fill-opacity="1" d=" M-3.7320001125335693,-2.0329999923706055 C-5.25,-25.775999069213867 8.937000274658203,-51.48899841308594 44.54399871826172,-57.28099822998047 C73.18599700927734,-61.49100112915039 92.36299896240234,-46.933998107910156 94.80799865722656,-21.45599937438965 C96.5999984741211,-5.809000015258789 96.7490005493164,-1.5750000476837158 96.33100128173828,9.829000473022461 C95.23999786376953,39.573001861572266 76.87300109863281,54.90700149536133 55.180999755859375,59.266998291015625 C32.48400115966797,63.82899856567383 1.6690000295639038,60.029998779296875 -1.2400000095367432,27.500999450683594 C-1.934999942779541,19.898000717163086 -2.638000011444092,12.079999923706055 -3.7320001125335693,-2.0329999923706055z"></path></g></g><g style="display: block;" transform="matrix(0.9999741315841675,-0.006846746429800987,0.006846746429800987,0.9999741315841675,539.5808715820312,540.89599609375)" opacity="1"><path fill="rgb(137,226,25)" fill-opacity="1" d=" M102.75,45.75 C102.75,45.75 75.75,59 13,60.25 C22,68.25 47,71.25 65.5,71.25 C84,71.25 102.75,45.75 102.75,45.75z"></path></g><g mask="url(#__lottie_element_2644_1)" style="display: block;"><g transform="matrix(0.9522311687469482,0.07896878570318222,-0.07896878570318222,0.9522311687469482,546.726806640625,545.65185546875)" opacity="1"><g opacity="1" transform="matrix(1,0,0,1,0,0)"><path fill="rgb(75,75,75)" fill-opacity="1" d=" M373.0769958496094,-252.197998046875 C373.0769958496094,-252.197998046875 373.0769958496094,252.197998046875 373.0769958496094,252.197998046875 C373.0769958496094,252.197998046875 -373.0769958496094,252.197998046875 -373.0769958496094,252.197998046875 C-373.0769958496094,252.197998046875 -373.0769958496094,-252.197998046875 -373.0769958496094,-252.197998046875 C-373.0769958496094,-252.197998046875 373.0769958496094,-252.197998046875 373.0769958496094,-252.197998046875z"></path></g><g opacity="1" transform="matrix(1,0,0,1,0,0)"><path fill="rgb(255,255,255)" fill-opacity="1" d=" M-103.52999877929688,-40.95199966430664 C-96.73699951171875,-40.95199966430664 -91.2300033569336,-34.29499816894531 -91.2300033569336,-26.083999633789062 C-91.2300033569336,-17.87299919128418 -96.73699951171875,-11.215999603271484 -103.52999877929688,-11.215999603271484 C-110.322998046875,-11.215999603271484 -115.83000183105469,-17.87299919128418 -115.83000183105469,-26.083999633789062 C-115.83000183105469,-34.29499816894531 -110.322998046875,-40.95199966430664 -103.52999877929688,-40.95199966430664z"></path></g><g opacity="1" transform="matrix(1,0,0,1,0,0)"><path fill="rgb(255,255,255)" fill-opacity="1" d=" M18.145000457763672,-21.29199981689453 C9.934000015258789,-21.29199981689453 3.2760000228881836,-14.635000228881836 3.2760000228881836,-6.423999786376953 C3.2760000228881836,1.7869999408721924 9.934000015258789,8.444000244140625 18.145000457763672,8.444000244140625 C26.356000900268555,8.444000244140625 33.01300048828125,1.7869999408721924 33.01300048828125,-6.423999786376953 C33.01300048828125,-14.635000228881836 26.356000900268555,-21.29199981689453 18.145000457763672,-21.29199981689453z"></path></g></g></g><g transform="matrix(0.906886875629425,0.07520836591720581,-0.07520836591720581,0.906886875629425,524.1231689453125,542.376220703125)" opacity="1" style="display: block;"><g opacity="1" transform="matrix(1,0,0,1,0,0)"><path fill="rgb(244,144,0)" fill-opacity="1" d=" M-12.27400016784668,27.406999588012695 C2.2019999027252197,27.201000213623047 13.994000434875488,39.07400131225586 13.994000434875488,53.78499984741211 C13.994000434875488,68.49600219726562 2.431999921798706,80.71199798583984 -12.258000373840332,80.74199676513672 C-26.74799919128418,80.76599884033203 -38.47999954223633,68.84600067138672 -38.47999954223633,54.1349983215332 C-38.47999954223633,39.42399978637695 -26.738000869750977,27.610000610351562 -12.27400016784668,27.406999588012695z"></path></g><g opacity="1" transform="matrix(1,0,0,1,0,0)"><path fill="rgb(176,104,0)" fill-opacity="1" d=" M-11.342000007629395,41.5 C-4.829999923706055,41.5 0.4480000138282776,46.87900161743164 0.4480000138282776,53.51300048828125 C0.4480000138282776,60.14699935913086 -4.829999923706055,65.5250015258789 -11.342000007629395,65.5250015258789 C-17.854000091552734,65.5250015258789 -23.131999969482422,60.14699935913086 -23.131999969482422,53.51300048828125 C-23.131999969482422,46.87900161743164 -17.854000091552734,41.5 -11.342000007629395,41.5z"></path></g><g opacity="1" transform="matrix(1,0,0,1,0,0)"><path fill="rgb(255,194,0)" fill-opacity="1" d=" M19.18400001525879,48.777000427246094 C20.285999298095703,38.10300064086914 4.326000213623047,21.79599952697754 -13.572999954223633,22.167999267578125 C-34.28200149536133,22.548999786376953 -44.917999267578125,35.249000549316406 -44.917999267578125,44.02000045776367 C-44.917999267578125,49.30799865722656 -27.24799919128418,66.83999633789062 -18.302000045776367,66.6510009765625 C-6.63100004196167,67.13099670410156 18.45199966430664,55.053001403808594 19.18400001525879,48.777000427246094z"></path></g><g opacity="1" transform="matrix(1,0,0,1,0,0)"><path stroke-linecap="round" stroke-linejoin="miter" fill-opacity="0" stroke-miterlimit="4" stroke="rgb(255,222,0)" stroke-opacity="1" stroke-width="15.445" d=" M-19.034000396728516,39.60599899291992 C-16.511999130249023,38.066001892089844 -9.932000160217285,36.09400177001953 -4.074999809265137,38.98400115966797"></path></g></g></g></svg>